<svg id="visual" viewBox="0 0 900 900" width="900" height="900" xmlns="http://www.w3.org/2000/svg" xmlns:xlink="http://www.w3.org/1999/xlink" version="1.1"><g stroke-width="1" stroke-linejoin="bevel"><path d="M472.6 460.6L484.6 416.4L417.4 420.4Z" fill="#34364d" stroke="#34364d"></path><path d="M417.4 420.4L427.4 473.6L472.6 460.6Z" fill="#292c46" stroke="#292c46"></path><path d="M484.6 416.4L466.6 366.2L417.4 420.4Z" fill="#36384e" stroke="#36384e"></path><path d="M466.6 366.2L440.4 357.2L417.4 420.4Z" fill="#282a44" stroke="#282a44"></path><path d="M366.2 395.4L369.2 458.6L417.4 420.4Z" fill="#2f3149" stroke="#2f3149"></path><path d="M417.4 420.4L369.2 458.6L427.4 473.6Z" fill="#2d2f48" stroke="#2d2f48"></path><path d="M440.4 357.2L366.2 395.4L417.4 420.4Z" fill="#2f3149" stroke="#2f3149"></path><path d="M427.4 473.6L471.6 538.8L472.6 460.6Z" fill="#34364d" stroke="#34364d"></path><path d="M472.6 460.6L578.8 416.4L484.6 416.4Z" fill="#2f3149" stroke="#2f3149"></path><path d="M412.4 560.8L471.6 538.8L427.4 473.6Z" fill="#31334a" stroke="#31334a"></path><path d="M579.8 499.6L578.8 416.4L472.6 460.6Z" fill="#2d2f48" stroke="#2d2f48"></path><path d="M484.6 416.4L551.8 336.2L466.6 366.2Z" fill="#292c46" stroke="#292c46"></path><path d="M440.4 357.2L349.2 349.2L366.2 395.4Z" fill="#2d2f48" stroke="#2d2f48"></path><path d="M267.9 410.4L288.9 485.6L369.2 458.6Z" fill="#31334a" stroke="#31334a"></path><path d="M466.6 366.2L463.6 298.9L440.4 357.2Z" fill="#242742" stroke="#242742"></path><path d="M440.4 357.2L427.4 262.9L349.2 349.2Z" fill="#36384e" stroke="#36384e"></path><path d="M551.8 336.2L463.6 298.9L466.6 366.2Z" fill="#2d2f48" stroke="#2d2f48"></path><path d="M369.2 458.6L412.4 560.8L427.4 473.6Z" fill="#31334a" stroke="#31334a"></path><path d="M578.8 416.4L551.8 336.2L484.6 416.4Z" fill="#292c46" stroke="#292c46"></path><path d="M555.8 534.8L472.6 460.6L471.6 538.8Z" fill="#282a44" stroke="#282a44"></path><path d="M555.8 534.8L579.8 499.6L472.6 460.6Z" fill="#2f3149" stroke="#2f3149"></path><path d="M531.8 611.1L555.8 534.8L471.6 538.8Z" fill="#2b2d47" stroke="#2b2d47"></path><path d="M369.2 458.6L353.2 564.8L412.4 560.8Z" fill="#31334a" stroke="#31334a"></path><path d="M298.9 544.8L353.2 564.8L369.2 458.6Z" fill="#2d2f48" stroke="#2d2f48"></path><path d="M595.1 573.8L608.1 492.6L579.8 499.6Z" fill="#2f3149" stroke="#2f3149"></path><path d="M579.8 499.6L608.1 492.6L578.8 416.4Z" fill="#242742" stroke="#242742"></path><path d="M578.8 416.4L629.1 366.2L551.8 336.2Z" fill="#262943" stroke="#262943"></path><path d="M437.4 228.7L427.4 262.9L463.6 298.9Z" fill="#2f3149" stroke="#2f3149"></path><path d="M463.6 298.9L427.4 262.9L440.4 357.2Z" fill="#262943" stroke="#262943"></path><path d="M267.9 410.4L369.2 458.6L366.2 395.4Z" fill="#34364d" stroke="#34364d"></path><path d="M551.8 336.2L527.8 269.9L463.6 298.9Z" fill="#34364d" stroke="#34364d"></path><path d="M608.1 492.6L630.1 418.4L578.8 416.4Z" fill="#242742" stroke="#242742"></path><path d="M551.8 336.2L599.1 278.9L527.8 269.9Z" fill="#292c46" stroke="#292c46"></path><path d="M249.9 318.2L267.9 410.4L349.2 349.2Z" fill="#262943" stroke="#262943"></path><path d="M349.2 349.2L267.9 410.4L366.2 395.4Z" fill="#2d2f48" stroke="#2d2f48"></path><path d="M630.1 418.4L629.1 366.2L578.8 416.4Z" fill="#31334a" stroke="#31334a"></path><path d="M206.7 498.6L298.9 544.8L288.9 485.6Z" fill="#36384e" stroke="#36384e"></path><path d="M288.9 485.6L298.9 544.8L369.2 458.6Z" fill="#282a44" stroke="#282a44"></path><path d="M429.4 633.1L471.6 538.8L412.4 560.8Z" fill="#32344c" stroke="#32344c"></path><path d="M487.6 642.1L531.8 611.1L471.6 538.8Z" fill="#2f3149" stroke="#2f3149"></path><path d="M555.8 534.8L595.1 573.8L579.8 499.6Z" fill="#292c46" stroke="#292c46"></path><path d="M427.4 262.9L347.2 262.9L349.2 349.2Z" fill="#34364d" stroke="#34364d"></path><path d="M531.8 611.1L595.1 573.8L555.8 534.8Z" fill="#32344c" stroke="#32344c"></path><path d="M608.1 492.6L695.3 465.6L630.1 418.4Z" fill="#292c46" stroke="#292c46"></path><path d="M474.6 210.7L437.4 228.7L463.6 298.9Z" fill="#242742" stroke="#242742"></path><path d="M427.4 262.9L437.4 228.7L347.2 262.9Z" fill="#2d2f48" stroke="#2d2f48"></path><path d="M417.4 670.3L429.4 633.1L356.2 681.3Z" fill="#2d2f48" stroke="#2d2f48"></path><path d="M353.2 564.8L429.4 633.1L412.4 560.8Z" fill="#2d2f48" stroke="#2d2f48"></path><path d="M629.1 366.2L599.1 278.9L551.8 336.2Z" fill="#36384e" stroke="#36384e"></path><path d="M527.8 269.9L474.6 210.7L463.6 298.9Z" fill="#34364d" stroke="#34364d"></path><path d="M429.4 633.1L487.6 642.1L471.6 538.8Z" fill="#242742" stroke="#242742"></path><path d="M551.8 670.3L638.1 597.1L595.1 573.8Z" fill="#31334a" stroke="#31334a"></path><path d="M347.2 262.9L279.9 294.9L349.2 349.2Z" fill="#32344c" stroke="#32344c"></path><path d="M572.8 185.7L474.6 210.7L527.8 269.9Z" fill="#31334a" stroke="#31334a"></path><path d="M437.4 228.7L339.2 198.7L347.2 262.9Z" fill="#2f3149" stroke="#2f3149"></path><path d="M279.9 294.9L249.9 318.2L349.2 349.2Z" fill="#262943" stroke="#262943"></path><path d="M323.2 638.1L429.4 633.1L353.2 564.8Z" fill="#292c46" stroke="#292c46"></path><path d="M429.4 633.1L485.6 684.3L487.6 642.1Z" fill="#32344c" stroke="#32344c"></path><path d="M293.9 633.1L323.2 638.1L353.2 564.8Z" fill="#262943" stroke="#262943"></path><path d="M249.9 318.2L211.7 387.4L267.9 410.4Z" fill="#282a44" stroke="#282a44"></path><path d="M267.9 410.4L206.7 498.6L288.9 485.6Z" fill="#2b2d47" stroke="#2b2d47"></path><path d="M298.9 544.8L293.9 633.1L353.2 564.8Z" fill="#36384e" stroke="#36384e"></path><path d="M712.3 557.8L695.3 465.6L608.1 492.6Z" fill="#36384e" stroke="#36384e"></path><path d="M630.1 418.4L703.3 433.4L629.1 366.2Z" fill="#282a44" stroke="#282a44"></path><path d="M679.3 228.7L630.1 228.7L599.1 278.9Z" fill="#32344c" stroke="#32344c"></path><path d="M551.8 670.3L595.1 573.8L531.8 611.1Z" fill="#36384e" stroke="#36384e"></path><path d="M595.1 573.8L638.1 597.1L608.1 492.6Z" fill="#2f3149" stroke="#2f3149"></path><path d="M551.8 670.3L531.8 611.1L487.6 642.1Z" fill="#282a44" stroke="#282a44"></path><path d="M695.3 465.6L703.3 433.4L630.1 418.4Z" fill="#242742" stroke="#242742"></path><path d="M211.7 387.4L206.7 498.6L267.9 410.4Z" fill="#36384e" stroke="#36384e"></path><path d="M417.4 670.3L485.6 684.3L429.4 633.1Z" fill="#2d2f48" stroke="#2d2f48"></path><path d="M200.7 551.8L293.9 633.1L298.9 544.8Z" fill="#282a44" stroke="#282a44"></path><path d="M323.2 638.1L356.2 681.3L429.4 633.1Z" fill="#31334a" stroke="#31334a"></path><path d="M398.4 161.5L339.2 198.7L437.4 228.7Z" fill="#34364d" stroke="#34364d"></path><path d="M347.2 262.9L303.9 185.7L279.9 294.9Z" fill="#282a44" stroke="#282a44"></path><path d="M279.9 294.9L225.7 288.9L249.9 318.2Z" fill="#2f3149" stroke="#2f3149"></path><path d="M485.6 684.3L551.8 670.3L487.6 642.1Z" fill="#34364d" stroke="#34364d"></path><path d="M229.7 190.7L225.7 288.9L279.9 294.9Z" fill="#262943" stroke="#262943"></path><path d="M249.9 318.2L199.7 335.2L211.7 387.4Z" fill="#2d2f48" stroke="#2d2f48"></path><path d="M254.9 679.3L356.2 681.3L323.2 638.1Z" fill="#36384e" stroke="#36384e"></path><path d="M417.4 670.3L487.6 755.5L485.6 684.3Z" fill="#262943" stroke="#262943"></path><path d="M225.7 288.9L199.7 335.2L249.9 318.2Z" fill="#2f3149" stroke="#2f3149"></path><path d="M211.7 387.4L120.5 418.4L206.7 498.6Z" fill="#2d2f48" stroke="#2d2f48"></path><path d="M710.3 290.9L599.1 278.9L629.1 366.2Z" fill="#2d2f48" stroke="#2d2f48"></path><path d="M599.1 278.9L572.8 185.7L527.8 269.9Z" fill="#36384e" stroke="#36384e"></path><path d="M630.1 228.7L572.8 185.7L599.1 278.9Z" fill="#34364d" stroke="#34364d"></path><path d="M474.6 210.7L398.4 161.5L437.4 228.7Z" fill="#282a44" stroke="#282a44"></path><path d="M473.6 117.5L398.4 161.5L474.6 210.7Z" fill="#31334a" stroke="#31334a"></path><path d="M703.3 433.4L717.3 353.2L629.1 366.2Z" fill="#31334a" stroke="#31334a"></path><path d="M206.7 498.6L200.7 551.8L298.9 544.8Z" fill="#2b2d47" stroke="#2b2d47"></path><path d="M120.5 493.6L200.7 551.8L206.7 498.6Z" fill="#2b2d47" stroke="#2b2d47"></path><path d="M351.2 113.5L303.9 185.7L339.2 198.7Z" fill="#2f3149" stroke="#2f3149"></path><path d="M339.2 198.7L303.9 185.7L347.2 262.9Z" fill="#34364d" stroke="#34364d"></path><path d="M670.3 623.1L712.3 557.8L638.1 597.1Z" fill="#2d2f48" stroke="#2d2f48"></path><path d="M638.1 597.1L712.3 557.8L608.1 492.6Z" fill="#282a44" stroke="#282a44"></path><path d="M777.5 472.6L775.5 439.4L703.3 433.4Z" fill="#242742" stroke="#242742"></path><path d="M703.3 433.4L784.5 372.2L717.3 353.2Z" fill="#32344c" stroke="#32344c"></path><path d="M624.1 688.3L670.3 623.1L638.1 597.1Z" fill="#2f3149" stroke="#2f3149"></path><path d="M717.3 353.2L710.3 290.9L629.1 366.2Z" fill="#36384e" stroke="#36384e"></path><path d="M710.3 290.9L679.3 228.7L599.1 278.9Z" fill="#36384e" stroke="#36384e"></path><path d="M630.1 228.7L607.1 150.5L572.8 185.7Z" fill="#36384e" stroke="#36384e"></path><path d="M607.1 150.5L542.8 140.5L572.8 185.7Z" fill="#36384e" stroke="#36384e"></path><path d="M572.8 185.7L542.8 140.5L474.6 210.7Z" fill="#262943" stroke="#262943"></path><path d="M771.5 601.1L742.5 529.8L712.3 557.8Z" fill="#2b2d47" stroke="#2b2d47"></path><path d="M712.3 557.8L742.5 529.8L695.3 465.6Z" fill="#242742" stroke="#242742"></path><path d="M820.8 350.2L733.5 256.9L710.3 290.9Z" fill="#262943" stroke="#262943"></path><path d="M544.8 744.5L624.1 688.3L551.8 670.3Z" fill="#36384e" stroke="#36384e"></path><path d="M551.8 670.3L624.1 688.3L638.1 597.1Z" fill="#2f3149" stroke="#2f3149"></path><path d="M670.3 623.1L771.5 601.1L712.3 557.8Z" fill="#2b2d47" stroke="#2b2d47"></path><path d="M544.8 744.5L551.8 670.3L485.6 684.3Z" fill="#32344c" stroke="#32344c"></path><path d="M542.8 140.5L473.6 117.5L474.6 210.7Z" fill="#31334a" stroke="#31334a"></path><path d="M398.4 161.5L351.2 113.5L339.2 198.7Z" fill="#32344c" stroke="#32344c"></path><path d="M234.7 671.3L254.9 679.3L293.9 633.1Z" fill="#282a44" stroke="#282a44"></path><path d="M293.9 633.1L254.9 679.3L323.2 638.1Z" fill="#262943" stroke="#262943"></path><path d="M408.4 788.5L487.6 755.5L417.4 670.3Z" fill="#34364d" stroke="#34364d"></path><path d="M125.5 576.8L198.7 626.1L200.7 551.8Z" fill="#282a44" stroke="#282a44"></path><path d="M200.7 551.8L198.7 626.1L293.9 633.1Z" fill="#34364d" stroke="#34364d"></path><path d="M679.3 228.7L607.1 150.5L630.1 228.7Z" fill="#32344c" stroke="#32344c"></path><path d="M495.6 44.2L408.4 80.2L473.6 117.5Z" fill="#292c46" stroke="#292c46"></path><path d="M198.7 626.1L234.7 671.3L293.9 633.1Z" fill="#36384e" stroke="#36384e"></path><path d="M777.5 472.6L703.3 433.4L695.3 465.6Z" fill="#282a44" stroke="#282a44"></path><path d="M408.4 788.5L417.4 670.3L356.2 681.3Z" fill="#2d2f48" stroke="#2d2f48"></path><path d="M487.6 755.5L544.8 744.5L485.6 684.3Z" fill="#31334a" stroke="#31334a"></path><path d="M303.9 185.7L229.7 190.7L279.9 294.9Z" fill="#292c46" stroke="#292c46"></path><path d="M130.5 277.9L124.5 356.2L199.7 335.2Z" fill="#2d2f48" stroke="#2d2f48"></path><path d="M252.9 152.5L229.7 190.7L303.9 185.7Z" fill="#2b2d47" stroke="#2b2d47"></path><path d="M742.5 529.8L777.5 472.6L695.3 465.6Z" fill="#242742" stroke="#242742"></path><path d="M710.3 290.9L733.5 256.9L679.3 228.7Z" fill="#32344c" stroke="#32344c"></path><path d="M679.3 228.7L717.3 151.5L607.1 150.5Z" fill="#32344c" stroke="#32344c"></path><path d="M784.5 372.2L710.3 290.9L717.3 353.2Z" fill="#34364d" stroke="#34364d"></path><path d="M124.5 356.2L211.7 387.4L199.7 335.2Z" fill="#262943" stroke="#262943"></path><path d="M124.5 356.2L120.5 418.4L211.7 387.4Z" fill="#2b2d47" stroke="#2b2d47"></path><path d="M408.4 80.2L351.2 113.5L398.4 161.5Z" fill="#32344c" stroke="#32344c"></path><path d="M261.9 764.5L322.2 740.5L254.9 679.3Z" fill="#292c46" stroke="#292c46"></path><path d="M254.9 679.3L322.2 740.5L356.2 681.3Z" fill="#2b2d47" stroke="#2b2d47"></path><path d="M130.5 277.9L199.7 335.2L225.7 288.9Z" fill="#292c46" stroke="#292c46"></path><path d="M120.5 418.4L120.5 493.6L206.7 498.6Z" fill="#34364d" stroke="#34364d"></path><path d="M815.8 435.4L784.5 372.2L775.5 439.4Z" fill="#34364d" stroke="#34364d"></path><path d="M775.5 439.4L784.5 372.2L703.3 433.4Z" fill="#2d2f48" stroke="#2d2f48"></path><path d="M351.2 113.5L252.9 152.5L303.9 185.7Z" fill="#2d2f48" stroke="#2d2f48"></path><path d="M229.7 190.7L130.5 277.9L225.7 288.9Z" fill="#282a44" stroke="#282a44"></path><path d="M546.8 84.2L473.6 117.5L542.8 140.5Z" fill="#2b2d47" stroke="#2b2d47"></path><path d="M473.6 117.5L408.4 80.2L398.4 161.5Z" fill="#242742" stroke="#242742"></path><path d="M351.2 113.5L290.9 69.2L252.9 152.5Z" fill="#32344c" stroke="#32344c"></path><path d="M77.2 295.9L130.5 277.9L62.2 185.7Z" fill="#2f3149" stroke="#2f3149"></path><path d="M198.7 626.1L154.5 697.3L234.7 671.3Z" fill="#292c46" stroke="#292c46"></path><path d="M120.5 493.6L125.5 576.8L200.7 551.8Z" fill="#292c46" stroke="#292c46"></path><path d="M631.1 42.2L546.8 84.2L607.1 150.5Z" fill="#262943" stroke="#262943"></path><path d="M607.1 150.5L546.8 84.2L542.8 140.5Z" fill="#32344c" stroke="#32344c"></path><path d="M322.2 740.5L408.4 788.5L356.2 681.3Z" fill="#282a44" stroke="#282a44"></path><path d="M487.6 755.5L525.8 818.8L544.8 744.5Z" fill="#282a44" stroke="#282a44"></path><path d="M690.3 717.3L670.3 623.1L624.1 688.3Z" fill="#36384e" stroke="#36384e"></path><path d="M737.5 689.3L771.5 601.1L670.3 623.1Z" fill="#2b2d47" stroke="#2b2d47"></path><path d="M742.5 529.8L844.8 491.6L777.5 472.6Z" fill="#282a44" stroke="#282a44"></path><path d="M777.5 472.6L815.8 435.4L775.5 439.4Z" fill="#262943" stroke="#262943"></path><path d="M844.8 491.6L815.8 435.4L777.5 472.6Z" fill="#32344c" stroke="#32344c"></path><path d="M835.8 295.9L771.5 233.7L733.5 256.9Z" fill="#262943" stroke="#262943"></path><path d="M120.5 418.4L85.2 486.6L120.5 493.6Z" fill="#2b2d47" stroke="#2b2d47"></path><path d="M120.5 493.6L85.2 549.8L125.5 576.8Z" fill="#242742" stroke="#242742"></path><path d="M71.2 405.4L85.2 486.6L120.5 418.4Z" fill="#2f3149" stroke="#2f3149"></path><path d="M71.2 405.4L120.5 418.4L124.5 356.2Z" fill="#32344c" stroke="#32344c"></path><path d="M634.1 784.5L690.3 717.3L624.1 688.3Z" fill="#2b2d47" stroke="#2b2d47"></path><path d="M634.1 784.5L624.1 688.3L544.8 744.5Z" fill="#292c46" stroke="#292c46"></path><path d="M820.8 350.2L710.3 290.9L784.5 372.2Z" fill="#2d2f48" stroke="#2d2f48"></path><path d="M733.5 256.9L717.3 151.5L679.3 228.7Z" fill="#36384e" stroke="#36384e"></path><path d="M408.4 80.2L349.2 68.2L351.2 113.5Z" fill="#32344c" stroke="#32344c"></path><path d="M405.4 0L349.2 68.2L408.4 80.2Z" fill="#31334a" stroke="#31334a"></path><path d="M96.2 632.1L133.5 634.1L125.5 576.8Z" fill="#242742" stroke="#242742"></path><path d="M125.5 576.8L133.5 634.1L198.7 626.1Z" fill="#2d2f48" stroke="#2d2f48"></path><path d="M231.7 763.5L261.9 764.5L254.9 679.3Z" fill="#34364d" stroke="#34364d"></path><path d="M815.8 435.4L820.8 350.2L784.5 372.2Z" fill="#2b2d47" stroke="#2b2d47"></path><path d="M67.2 333.2L71.2 405.4L124.5 356.2Z" fill="#2d2f48" stroke="#2d2f48"></path><path d="M231.7 763.5L254.9 679.3L234.7 671.3Z" fill="#31334a" stroke="#31334a"></path><path d="M322.2 740.5L336.2 806.8L408.4 788.5Z" fill="#34364d" stroke="#34364d"></path><path d="M690.3 717.3L737.5 689.3L670.3 623.1Z" fill="#242742" stroke="#242742"></path><path d="M0 489.6L85.2 549.8L85.2 486.6Z" fill="#292c46" stroke="#292c46"></path><path d="M85.2 486.6L85.2 549.8L120.5 493.6Z" fill="#292c46" stroke="#292c46"></path><path d="M771.5 233.7L717.3 151.5L733.5 256.9Z" fill="#2b2d47" stroke="#2b2d47"></path><path d="M510.6 0L495.6 44.2L538.8 0Z" fill="#2f3149" stroke="#2f3149"></path><path d="M546.8 84.2L495.6 44.2L473.6 117.5Z" fill="#282a44" stroke="#282a44"></path><path d="M290.9 819.8L336.2 806.8L322.2 740.5Z" fill="#2d2f48" stroke="#2d2f48"></path><path d="M487.6 824.8L487.6 755.5L408.4 788.5Z" fill="#2f3149" stroke="#2f3149"></path><path d="M487.6 824.8L525.8 818.8L487.6 755.5Z" fill="#2b2d47" stroke="#2b2d47"></path><path d="M690.3 717.3L748.5 742.5L737.5 689.3Z" fill="#242742" stroke="#242742"></path><path d="M420.4 833.8L487.6 824.8L408.4 788.5Z" fill="#242742" stroke="#242742"></path><path d="M324.2 0L290.9 69.2L349.2 68.2Z" fill="#31334a" stroke="#31334a"></path><path d="M349.2 68.2L290.9 69.2L351.2 113.5Z" fill="#2f3149" stroke="#2f3149"></path><path d="M111.5 179.7L130.5 277.9L229.7 190.7Z" fill="#2d2f48" stroke="#2d2f48"></path><path d="M77.2 295.9L67.2 333.2L124.5 356.2Z" fill="#2d2f48" stroke="#2d2f48"></path><path d="M77.2 295.9L124.5 356.2L130.5 277.9Z" fill="#292c46" stroke="#292c46"></path><path d="M605.1 804.8L634.1 784.5L544.8 744.5Z" fill="#242742" stroke="#242742"></path><path d="M822.8 576.8L844.8 491.6L742.5 529.8Z" fill="#2b2d47" stroke="#2b2d47"></path><path d="M815.8 435.4L900 415.4L820.8 350.2Z" fill="#2d2f48" stroke="#2d2f48"></path><path d="M822.8 576.8L742.5 529.8L771.5 601.1Z" fill="#36384e" stroke="#36384e"></path><path d="M181.7 117.5L229.7 190.7L252.9 152.5Z" fill="#282a44" stroke="#282a44"></path><path d="M826.8 619.1L822.8 576.8L771.5 601.1Z" fill="#242742" stroke="#242742"></path><path d="M261.9 764.5L290.9 819.8L322.2 740.5Z" fill="#2d2f48" stroke="#2d2f48"></path><path d="M154.5 697.3L231.7 763.5L234.7 671.3Z" fill="#2f3149" stroke="#2f3149"></path><path d="M91.2 717.3L154.5 697.3L133.5 634.1Z" fill="#282a44" stroke="#282a44"></path><path d="M133.5 634.1L154.5 697.3L198.7 626.1Z" fill="#2d2f48" stroke="#2d2f48"></path><path d="M336.2 806.8L420.4 833.8L408.4 788.5Z" fill="#242742" stroke="#242742"></path><path d="M525.8 818.8L605.1 804.8L544.8 744.5Z" fill="#32344c" stroke="#32344c"></path><path d="M900 335.2L835.8 295.9L820.8 350.2Z" fill="#242742" stroke="#242742"></path><path d="M820.8 350.2L835.8 295.9L733.5 256.9Z" fill="#2b2d47" stroke="#2b2d47"></path><path d="M771.5 233.7L739.5 139.5L717.3 151.5Z" fill="#262943" stroke="#262943"></path><path d="M85.2 549.8L96.2 632.1L125.5 576.8Z" fill="#262943" stroke="#262943"></path><path d="M834.8 202.7L739.5 139.5L771.5 233.7Z" fill="#292c46" stroke="#292c46"></path><path d="M717.3 151.5L701.3 89.2L607.1 150.5Z" fill="#32344c" stroke="#32344c"></path><path d="M634.1 784.5L703.3 758.5L690.3 717.3Z" fill="#292c46" stroke="#292c46"></path><path d="M737.5 689.3L826.8 619.1L771.5 601.1Z" fill="#2b2d47" stroke="#2b2d47"></path><path d="M745.5 818.8L703.3 758.5L709.3 853.8Z" fill="#242742" stroke="#242742"></path><path d="M179.7 83.2L181.7 117.5L252.9 152.5Z" fill="#36384e" stroke="#36384e"></path><path d="M814.8 707.3L826.8 619.1L737.5 689.3Z" fill="#34364d" stroke="#34364d"></path><path d="M900 533.8L900 508.6L844.8 491.6Z" fill="#262943" stroke="#262943"></path><path d="M231.7 763.5L290.9 819.8L261.9 764.5Z" fill="#34364d" stroke="#34364d"></path><path d="M322.2 900L420.4 900L420.4 833.8Z" fill="#292c46" stroke="#292c46"></path><path d="M183.7 850.8L290.9 819.8L231.7 763.5Z" fill="#31334a" stroke="#31334a"></path><path d="M142.5 132.5L111.5 179.7L229.7 190.7Z" fill="#282a44" stroke="#282a44"></path><path d="M739.5 139.5L701.3 89.2L717.3 151.5Z" fill="#36384e" stroke="#36384e"></path><path d="M701.3 89.2L631.1 42.2L607.1 150.5Z" fill="#2f3149" stroke="#2f3149"></path><path d="M179.7 83.2L142.5 132.5L181.7 117.5Z" fill="#34364d" stroke="#34364d"></path><path d="M181.7 117.5L142.5 132.5L229.7 190.7Z" fill="#2b2d47" stroke="#2b2d47"></path><path d="M815.8 751.5L748.5 742.5L745.5 818.8Z" fill="#31334a" stroke="#31334a"></path><path d="M703.3 758.5L748.5 742.5L690.3 717.3Z" fill="#2f3149" stroke="#2f3149"></path><path d="M510.6 0L405.4 0L495.6 44.2Z" fill="#34364d" stroke="#34364d"></path><path d="M495.6 44.2L405.4 0L408.4 80.2Z" fill="#32344c" stroke="#32344c"></path><path d="M290.9 69.2L179.7 83.2L252.9 152.5Z" fill="#34364d" stroke="#34364d"></path><path d="M538.8 0L495.6 44.2L546.8 84.2Z" fill="#282a44" stroke="#282a44"></path><path d="M631.1 42.2L538.8 0L546.8 84.2Z" fill="#36384e" stroke="#36384e"></path><path d="M196.7 0L179.7 83.2L290.9 69.2Z" fill="#32344c" stroke="#32344c"></path><path d="M835.8 295.9L834.8 202.7L771.5 233.7Z" fill="#2b2d47" stroke="#2b2d47"></path><path d="M739.5 139.5L746.5 67.2L701.3 89.2Z" fill="#292c46" stroke="#292c46"></path><path d="M900 208.7L834.8 202.7L835.8 295.9Z" fill="#2b2d47" stroke="#2b2d47"></path><path d="M91.2 717.3L126.5 736.5L154.5 697.3Z" fill="#292c46" stroke="#292c46"></path><path d="M154.5 697.3L126.5 736.5L231.7 763.5Z" fill="#2b2d47" stroke="#2b2d47"></path><path d="M900 508.6L900 415.4L844.8 491.6Z" fill="#2f3149" stroke="#2f3149"></path><path d="M844.8 491.6L900 415.4L815.8 435.4Z" fill="#36384e" stroke="#36384e"></path><path d="M405.4 0L324.2 0L349.2 68.2Z" fill="#282a44" stroke="#282a44"></path><path d="M71.2 405.4L0 442.4L85.2 486.6Z" fill="#2d2f48" stroke="#2d2f48"></path><path d="M85.2 549.8L0 608.1L96.2 632.1Z" fill="#2b2d47" stroke="#2b2d47"></path><path d="M96.2 632.1L91.2 717.3L133.5 634.1Z" fill="#34364d" stroke="#34364d"></path><path d="M0 349.2L0 442.4L71.2 405.4Z" fill="#2f3149" stroke="#2f3149"></path><path d="M0 349.2L71.2 405.4L67.2 333.2Z" fill="#36384e" stroke="#36384e"></path><path d="M0 349.2L67.2 333.2L77.2 295.9Z" fill="#2b2d47" stroke="#2b2d47"></path><path d="M900 533.8L822.8 576.8L900 613.1Z" fill="#242742" stroke="#242742"></path><path d="M900 533.8L844.8 491.6L822.8 576.8Z" fill="#31334a" stroke="#31334a"></path><path d="M0 442.4L0 489.6L85.2 486.6Z" fill="#282a44" stroke="#282a44"></path><path d="M748.5 742.5L814.8 707.3L737.5 689.3Z" fill="#262943" stroke="#262943"></path><path d="M324.2 0L296.9 0L290.9 69.2Z" fill="#292c46" stroke="#292c46"></path><path d="M900 415.4L900 335.2L820.8 350.2Z" fill="#36384e" stroke="#36384e"></path><path d="M62.2 185.7L130.5 277.9L111.5 179.7Z" fill="#242742" stroke="#242742"></path><path d="M0 253.9L0 349.2L77.2 295.9Z" fill="#36384e" stroke="#36384e"></path><path d="M900 613.1L822.8 576.8L826.8 619.1Z" fill="#32344c" stroke="#32344c"></path><path d="M0 679.3L91.2 717.3L96.2 632.1Z" fill="#34364d" stroke="#34364d"></path><path d="M58.2 165.5L111.5 179.7L142.5 132.5Z" fill="#34364d" stroke="#34364d"></path><path d="M58.2 165.5L62.2 185.7L111.5 179.7Z" fill="#2f3149" stroke="#2f3149"></path><path d="M676.3 0L632.1 0L631.1 42.2Z" fill="#32344c" stroke="#32344c"></path><path d="M631.1 42.2L632.1 0L538.8 0Z" fill="#242742" stroke="#242742"></path><path d="M676.3 0L631.1 42.2L701.3 89.2Z" fill="#34364d" stroke="#34364d"></path><path d="M900 335.2L900 297.9L835.8 295.9Z" fill="#2b2d47" stroke="#2b2d47"></path><path d="M830.8 126.5L739.5 139.5L834.8 202.7Z" fill="#31334a" stroke="#31334a"></path><path d="M830.8 126.5L746.5 67.2L739.5 139.5Z" fill="#34364d" stroke="#34364d"></path><path d="M322.2 900L420.4 833.8L336.2 806.8Z" fill="#2d2f48" stroke="#2d2f48"></path><path d="M420.4 833.8L493.6 900L487.6 824.8Z" fill="#31334a" stroke="#31334a"></path><path d="M487.6 824.8L493.6 900L525.8 818.8Z" fill="#32344c" stroke="#32344c"></path><path d="M525.8 818.8L562.8 900L605.1 804.8Z" fill="#36384e" stroke="#36384e"></path><path d="M709.3 853.8L703.3 758.5L634.1 784.5Z" fill="#2b2d47" stroke="#2b2d47"></path><path d="M322.2 900L336.2 806.8L290.9 819.8Z" fill="#31334a" stroke="#31334a"></path><path d="M322.2 900L290.9 819.8L278.9 900Z" fill="#242742" stroke="#242742"></path><path d="M420.4 900L493.6 900L420.4 833.8Z" fill="#34364d" stroke="#34364d"></path><path d="M748.5 742.5L815.8 751.5L814.8 707.3Z" fill="#242742" stroke="#242742"></path><path d="M119.5 70.2L142.5 132.5L179.7 83.2Z" fill="#242742" stroke="#242742"></path><path d="M119.5 70.2L58.2 165.5L142.5 132.5Z" fill="#282a44" stroke="#282a44"></path><path d="M0 233.7L0 253.9L77.2 295.9Z" fill="#282a44" stroke="#282a44"></path><path d="M0 489.6L0 578.8L85.2 549.8Z" fill="#2d2f48" stroke="#2d2f48"></path><path d="M493.6 900L562.8 900L525.8 818.8Z" fill="#36384e" stroke="#36384e"></path><path d="M900 665.3L900 613.1L826.8 619.1Z" fill="#242742" stroke="#242742"></path><path d="M745.5 818.8L748.5 742.5L703.3 758.5Z" fill="#262943" stroke="#262943"></path><path d="M814.8 707.3L900 665.3L826.8 619.1Z" fill="#262943" stroke="#262943"></path><path d="M0 578.8L0 608.1L85.2 549.8Z" fill="#2b2d47" stroke="#2b2d47"></path><path d="M0 233.7L77.2 295.9L62.2 185.7Z" fill="#292c46" stroke="#292c46"></path><path d="M746.5 67.2L676.3 0L701.3 89.2Z" fill="#282a44" stroke="#282a44"></path><path d="M709.3 853.8L634.1 784.5L605.1 804.8Z" fill="#2b2d47" stroke="#2b2d47"></path><path d="M900 146.5L830.8 126.5L834.8 202.7Z" fill="#282a44" stroke="#282a44"></path><path d="M746.5 67.2L735.5 0L676.3 0Z" fill="#282a44" stroke="#282a44"></path><path d="M183.7 850.8L231.7 763.5L126.5 736.5Z" fill="#2f3149" stroke="#2f3149"></path><path d="M562.8 900L596.1 900L605.1 804.8Z" fill="#32344c" stroke="#32344c"></path><path d="M196.7 0L119.5 70.2L179.7 83.2Z" fill="#2d2f48" stroke="#2d2f48"></path><path d="M0 137.5L0 233.7L62.2 185.7Z" fill="#282a44" stroke="#282a44"></path><path d="M0 137.5L62.2 185.7L58.2 165.5Z" fill="#32344c" stroke="#32344c"></path><path d="M678.3 900L709.3 853.8L605.1 804.8Z" fill="#262943" stroke="#262943"></path><path d="M745.5 818.8L806.8 821.8L815.8 751.5Z" fill="#2d2f48" stroke="#2d2f48"></path><path d="M110.5 836.8L183.7 850.8L126.5 736.5Z" fill="#292c46" stroke="#292c46"></path><path d="M53.2 767.5L126.5 736.5L91.2 717.3Z" fill="#242742" stroke="#242742"></path><path d="M216.7 900L278.9 900L290.9 819.8Z" fill="#32344c" stroke="#32344c"></path><path d="M900 297.9L900 208.7L835.8 295.9Z" fill="#32344c" stroke="#32344c"></path><path d="M296.9 0L196.7 0L290.9 69.2Z" fill="#292c46" stroke="#292c46"></path><path d="M900 743.5L900 665.3L814.8 707.3Z" fill="#262943" stroke="#262943"></path><path d="M0 608.1L0 679.3L96.2 632.1Z" fill="#34364d" stroke="#34364d"></path><path d="M809.8 54.2L735.5 0L746.5 67.2Z" fill="#32344c" stroke="#32344c"></path><path d="M809.8 54.2L746.5 67.2L830.8 126.5Z" fill="#32344c" stroke="#32344c"></path><path d="M900 95.2L809.8 54.2L830.8 126.5Z" fill="#292c46" stroke="#292c46"></path><path d="M596.1 900L678.3 900L605.1 804.8Z" fill="#282a44" stroke="#282a44"></path><path d="M749.5 900L806.8 821.8L745.5 818.8Z" fill="#31334a" stroke="#31334a"></path><path d="M815.8 751.5L900 743.5L814.8 707.3Z" fill="#2f3149" stroke="#2f3149"></path><path d="M0 679.3L53.2 767.5L91.2 717.3Z" fill="#36384e" stroke="#36384e"></path><path d="M156.5 900L216.7 900L183.7 850.8Z" fill="#292c46" stroke="#292c46"></path><path d="M183.7 850.8L216.7 900L290.9 819.8Z" fill="#31334a" stroke="#31334a"></path><path d="M749.5 900L745.5 818.8L709.3 853.8Z" fill="#2f3149" stroke="#2f3149"></path><path d="M62.2 812.8L110.5 836.8L126.5 736.5Z" fill="#34364d" stroke="#34364d"></path><path d="M900 208.7L900 146.5L834.8 202.7Z" fill="#2f3149" stroke="#2f3149"></path><path d="M46.2 76.2L58.2 165.5L119.5 70.2Z" fill="#31334a" stroke="#31334a"></path><path d="M46.2 76.2L0 137.5L58.2 165.5Z" fill="#32344c" stroke="#32344c"></path><path d="M81.2 0L46.2 76.2L119.5 70.2Z" fill="#32344c" stroke="#32344c"></path><path d="M0 786.5L62.2 812.8L53.2 767.5Z" fill="#32344c" stroke="#32344c"></path><path d="M53.2 767.5L62.2 812.8L126.5 736.5Z" fill="#282a44" stroke="#282a44"></path><path d="M110.5 836.8L156.5 900L183.7 850.8Z" fill="#282a44" stroke="#282a44"></path><path d="M196.7 0L116.5 0L119.5 70.2Z" fill="#262943" stroke="#262943"></path><path d="M806.8 821.8L900 743.5L815.8 751.5Z" fill="#2d2f48" stroke="#2d2f48"></path><path d="M56.2 900L156.5 900L110.5 836.8Z" fill="#2f3149" stroke="#2f3149"></path><path d="M678.3 900L749.5 900L709.3 853.8Z" fill="#2b2d47" stroke="#2b2d47"></path><path d="M806.8 821.8L900 853.8L900 743.5Z" fill="#2d2f48" stroke="#2d2f48"></path><path d="M900 146.5L900 95.2L830.8 126.5Z" fill="#262943" stroke="#262943"></path><path d="M809.8 54.2L855.8 0L735.5 0Z" fill="#34364d" stroke="#34364d"></path><path d="M116.5 0L81.2 0L119.5 70.2Z" fill="#36384e" stroke="#36384e"></path><path d="M46.2 76.2L0 63.2L0 137.5Z" fill="#242742" stroke="#242742"></path><path d="M0 679.3L0 786.5L53.2 767.5Z" fill="#2d2f48" stroke="#2d2f48"></path><path d="M62.2 812.8L56.2 900L110.5 836.8Z" fill="#36384e" stroke="#36384e"></path><path d="M0 0L0 63.2L46.2 76.2Z" fill="#36384e" stroke="#36384e"></path><path d="M0 786.5L0 811.8L62.2 812.8Z" fill="#34364d" stroke="#34364d"></path><path d="M900 95.2L855.8 0L809.8 54.2Z" fill="#36384e" stroke="#36384e"></path><path d="M749.5 900L822.8 900L806.8 821.8Z" fill="#2b2d47" stroke="#2b2d47"></path><path d="M0 811.8L56.2 900L62.2 812.8Z" fill="#36384e" stroke="#36384e"></path><path d="M822.8 900L900 853.8L806.8 821.8Z" fill="#282a44" stroke="#282a44"></path><path d="M900 95.2L900 0L855.8 0Z" fill="#292c46" stroke="#292c46"></path><path d="M81.2 0L0 0L46.2 76.2Z" fill="#2f3149" stroke="#2f3149"></path><path d="M822.8 900L900 900L900 853.8Z" fill="#262943" stroke="#262943"></path><path d="M0 811.8L0 900L56.2 900Z" fill="#34364d" stroke="#34364d"></path></g></svg>